<svg width="110" height="110" viewBox="0 0 110 110" fill="none" xmlns="http://www.w3.org/2000/svg">
<circle cx="55" cy="55" r="55" fill="#353353"/>
<path d="M76.7613 23.2498C71.7117 8.07254 43.8063 0.350781 33.7072 24.3149L29.7207 37.362C27.6307 45.9108 28.7748 50.2943 32.9099 57.5984C35.5676 61.3261 38.491 62.9237 42.2117 66.119C33.2534 70.9778 28.9016 74.6748 26 85.8228V101H85V85.8227C82.6081 75.7046 77.8243 70.3792 68.2568 66.119C73.1344 62.5652 75.5806 60.6299 77.8243 57.5984C82.0766 51.7405 82.8739 43.7524 81.545 38.6933L76.7613 23.2498Z" fill="#6C6CE5"/>
<path d="M77.5586 76.7696H33.5703C32.6442 76.7696 32.3784 77.0359 32.3784 77.8347L34.5045 97.006V101H76.4955V97.006L78.6217 77.8347C78.6217 77.3022 78.6216 76.7696 77.5586 76.7696Z" fill="#919FAC"/>
<path d="M76.4955 97.006H34.5045V101H76.4955V97.006Z" fill="black"/>
<path d="M56.2973 68.2491H54.7027V76.7696H56.2973V68.2491Z" fill="#504D7A"/>
<path d="M61.6126 64.5213C68.5225 57.3321 72.509 54.6694 74.3694 47.2139H72.2432L73.5721 37.8945L72.509 34.9656H38.2252L37.4279 37.6283L36.8964 47.2139C37.4279 53.8706 43.5405 58.3972 49.3874 64.5213H61.6126Z" fill="#504D7A"/>
<path d="M37.428 37.8945H38.2253L38.7567 47.2139H36.8964C36.0991 47.2139 36.0991 39.4921 37.428 37.8945Z" fill="#FFBA91"/>
<path d="M73.5721 37.8945H72.7747L72.509 47.2139H74.3694C75.1667 47.2139 74.9009 39.4921 73.5721 37.8945Z" fill="#FFBA91"/>
<path d="M61.6126 60.7935C57.0946 62.6575 53.6397 62.3912 49.1216 60.7935C37.1622 55.2019 38.2252 46.1488 38.2253 34.9656C44.6036 20.5871 65.3333 19.2559 72.509 34.6993C73.0406 42.6874 74.901 54.9357 61.6126 60.7935Z" fill="#FECCA7"/>
<path d="M49.3874 64.5213V60.7936C54.3438 62.2314 56.98 62.216 61.6126 60.7936V64.5213L56.2973 68.2491H54.7027L49.3874 64.5213Z" fill="#FFBA91"/>
<path d="M57.0946 48.5453V44.285C57.0946 42.9536 53.9054 42.9536 53.9054 44.285V48.5453C53.9054 49.6103 57.0946 49.6103 57.0946 48.5453Z" fill="#FFBA91"/>
<path d="M60.018 52.5393H50.982V53.3381C50.982 58.1309 60.018 58.6634 60.018 53.3381V52.5393Z" fill="#FF4C60"/>
<path d="M39.1933 41.63C39.7436 43.3974 40.063 44.1603 40.5826 44.9356C41.5716 46.428 43.0379 47.0949 45.701 47.2658C47.5983 47.3909 49.4494 46.9365 50.704 46.0361C51.4852 45.4775 52.2164 44.3604 53.1901 42.2469C53.3902 41.8092 53.6057 41.334 53.6673 41.1839C53.8289 40.7796 54.2061 40.121 54.3484 39.9917C54.7641 39.6082 55.68 39.4582 56.3612 39.6583C56.6421 39.7375 57.0154 39.9626 57.1193 40.1168C57.3041 40.3836 57.5234 40.8213 58.016 41.8926C59.0435 44.1311 59.8017 45.365 60.4867 45.9236C61.2256 46.528 62.2762 46.949 63.6117 47.1741C64.1658 47.27 65.9823 47.2783 66.6134 47.195C67.9065 47.0157 68.9379 46.6531 69.696 46.1028C70.0347 45.8569 70.5889 45.2358 70.8583 44.7981C71.3509 44.006 71.6472 43.2765 72.1937 41.5383C72.6631 40.0452 72.8111 38.9637 72.6606 38.1826C72.5523 37.6203 72.8207 36.928 72.4113 36.6355C71.3651 35.8882 68.8321 36.172 66.0169 36.2234C63.9157 36.2609 63.373 36.2984 62.1685 36.4735C60.8523 36.6694 59.1359 37.0112 58.1853 37.2655C57.0039 37.5865 56.8961 37.6032 55.934 37.6282C54.8718 37.6532 54.487 37.6073 53.4287 37.3322C51.7161 36.8862 49.6764 36.511 47.9485 36.3276C47.5521 36.2817 46.5977 36.2484 45.1006 36.2234C42.2136 36.1748 39.5568 35.6899 38.5823 36.4735C38.2545 36.7371 38.0479 37.1108 37.9712 37.637C37.8526 38.4516 38.6565 39.9271 39.1933 41.63ZM47.8715 37.1571C49.2839 37.3406 50.3653 37.624 51.212 38.0367C51.3428 38.0992 51.4429 38.1659 51.4313 38.1826C51.4159 38.2076 52.151 39.0038 52.4088 39.2372L52.5397 39.354L52.5166 39.7166C52.4435 40.9422 51.6853 43.1932 50.9503 44.3895C50.627 44.9106 50.2729 45.2858 49.8689 45.5317C48.749 46.2154 47.1403 46.5614 45.6587 46.4405C43.9269 46.2946 42.9763 45.8735 42.0065 44.8272C41.1714 43.9227 40.852 43.089 40.3824 40.5587C40.2362 39.7541 40.2016 39.4915 40.1977 39.0997C40.1939 38.6787 40.2054 38.5953 40.2862 38.4035C40.5595 37.7449 41.4408 37.2989 42.7723 37.1446C43.4112 37.0696 43.4766 37.0654 45.447 37.0779C46.9094 37.0863 47.4713 37.1029 47.8715 37.1571ZM68.7686 37.1571C69.6691 37.2989 70.3618 37.5698 70.7428 37.9325C70.8544 38.0409 70.9699 38.2076 71.0468 38.3827C71.1623 38.637 71.1738 38.687 71.17 39.058C71.1661 39.7166 70.712 42.101 70.4195 43.0056C70.1732 43.7684 69.8808 44.277 69.4074 44.7897C68.3068 45.9694 67.0368 46.4488 65.0163 46.453C63.2345 46.4571 61.6951 45.9236 60.8754 45.019C60.1019 44.1686 59.2552 42.1469 58.9204 40.3502C58.8511 39.9709 58.7819 39.2789 58.8203 39.3748C58.8319 39.3998 58.9512 39.3081 59.0859 39.1664C59.2206 39.0246 59.5015 38.7328 59.7093 38.5161C59.9171 38.2993 60.0826 38.1034 60.0788 38.0867C60.0749 38.0659 60.0865 38.0617 60.1096 38.0784C60.1288 38.0909 60.1481 38.0867 60.1481 38.0617C60.1481 37.9367 61.5643 37.4781 62.4571 37.3114C63.6501 37.0904 64.1389 37.0613 66.3825 37.0779C67.9412 37.0863 68.4145 37.1029 68.7686 37.1571Z" fill="black"/>
<path d="M51.2478 34.9656C51.7793 35.4981 51.3545 36.5635 49.6532 35.4981C47.527 34.1668 44.8694 34.1668 42.2117 35.7644C41.4145 36.5632 40.3514 35.7644 40.8829 34.9656C44.3378 32.3029 48.5901 32.5692 51.2478 34.9656Z" fill="black"/>
<path d="M70.1171 34.9656C70.6487 35.4981 70.2239 36.8298 68.5225 35.7644C66.3964 34.4331 64.0045 34.1668 61.0811 35.7644C60.018 36.3454 59.0776 35.9961 59.6091 35.1973C61.8784 32.5692 67.4595 32.5692 70.1171 34.9656Z" fill="black"/>
<path d="M54.7027 33.1017C49.912 32.9165 47.599 31.5464 44.3378 27.2438C47.2613 25.38 49.3874 24.3149 53.1081 23.7823C53.3754 23.7823 53.9682 23.5302 54 23.5274C61.3357 22.877 68.8791 27.0301 71.5 32.5444C66.982 33.0769 62.4099 31.7704 60.2838 29.9065L63.7387 33.368C59.8451 32.9779 53.517 28.0309 54 23.5274C53.9682 23.5302 53.3754 23.7823 53.1081 23.7823C52.5903 28.3325 52.9645 30.5563 54.7027 33.1017Z" fill="black"/>
<path d="M53.1082 38.1608C48.4534 36.7255 45.4659 36.4584 39.5541 36.8295C38.9942 39.9966 39.6483 41.9712 41.4145 45.6163C45.2904 47.1198 47.2627 47.3414 50.1847 45.8826C52.6189 43.1486 53.3352 41.4748 53.1082 38.1608Z" fill="#FFE0CB"/>
<path d="M53.1082 38.1608C48.4534 36.7255 45.4659 36.4584 39.5541 36.8295C38.9942 39.9966 39.6483 41.9712 41.4145 45.6163C45.2904 47.1198 47.2627 47.3414 50.1847 45.8826C52.6189 43.1486 53.3352 41.4748 53.1082 38.1608Z" fill="#FFE0CB"/>
<path d="M58.1974 38.0452C62.8522 36.6099 65.8397 36.3429 71.7514 36.7139C72.3114 39.881 71.6573 41.8557 69.8911 45.5007C66.0151 47.0042 64.0429 47.2259 61.1208 45.767C58.6866 43.033 57.9704 41.3592 58.1974 38.0452Z" fill="#FFE0CB"/>
<path d="M58.1974 38.0452C62.8522 36.6099 65.8397 36.3429 71.7514 36.7139C72.3114 39.881 71.6573 41.8557 69.8911 45.5007C66.0151 47.0042 64.0429 47.2259 61.1208 45.767C58.6866 43.033 57.9704 41.3592 58.1974 38.0452Z" fill="#FFE0CB"/>
<ellipse cx="46.1982" cy="40.0247" rx="2.39189" ry="2.39641" fill="black"/>
<ellipse cx="64.8018" cy="40.0247" rx="2.39189" ry="2.39641" fill="black"/>
</svg>
