<svg width="20" height="20" viewBox="0 0 20 20" fill="none" xmlns="http://www.w3.org/2000/svg">
<path d="M5.37522 15.1882L6.62516 13.4935L2.60135 10.0011L6.62516 6.50863L5.37522 4.81393L0.375451 9.15374C0.258302 9.25538 0.16373 9.38431 0.0987376 9.53099C0.0337457 9.67767 0 9.83834 0 10.0011C0 10.1638 0.0337457 10.3245 0.0987376 10.4712C0.16373 10.6179 0.258302 10.7468 0.375451 10.8484L5.37522 15.1882ZM14.6248 4.81393L13.3748 6.50863L17.3987 10.0011L13.3748 13.4935L14.6248 15.1882L19.6245 10.8484C19.7417 10.7468 19.8363 10.6179 19.9013 10.4712C19.9663 10.3245 20 10.1638 20 10.0011C20 9.83834 19.9663 9.67767 19.9013 9.53099C19.8363 9.38431 19.7417 9.25538 19.6245 9.15374L14.6248 4.81393ZM12.9759 0.470869L8.97605 20L7.02314 19.5291L11.023 0L12.9759 0.470869Z" fill="black"/>
</svg>
