<svg width="39" height="44" viewBox="0 0 39 44" fill="none" xmlns="http://www.w3.org/2000/svg">
<path d="M3.50937 39.3766L0 0H38.575L35.0609 39.3703L19.2641 43.75L3.50937 39.3766Z" fill="#1572B6"/>
<path d="M19.2875 40.4031L32.0531 36.864L35.0562 3.22028H19.2875V40.4031Z" fill="#33A9DC"/>
<path d="M19.2875 17.4859H25.6781L26.1187 12.5406H19.2875V7.71094H31.3969L31.2812 9.00625L30.0953 22.3156H19.2875V17.4859Z" fill="white"/>
<path d="M19.3172 30.0281L19.2953 30.0344L13.9172 28.5812L13.5734 24.7297H8.72498L9.40154 32.3125L19.2937 35.0594L19.3172 35.0531V30.0281Z" fill="#EBEBEB"/>
<path d="M25.2671 22.111L24.6859 28.5782L19.2999 30.0313V35.0563L29.1999 32.3125L29.2734 31.4969L30.1124 22.111H25.2671Z" fill="white"/>
<path d="M19.3046 7.71094V12.5406H7.63899L7.54211 11.4547L7.3218 9.00625L7.20618 7.71094H19.3046Z" fill="#EBEBEB"/>
<path d="M19.2875 17.4859V22.3156H13.9765L13.8797 21.2297L13.6609 18.7812L13.5453 17.4859H19.2875Z" fill="#EBEBEB"/>
</svg>
