<svg width="45" height="50" viewBox="0 0 45 50" fill="none" xmlns="http://www.w3.org/2000/svg">
<path d="M4.01071 45.0018L0 0H44.0857L40.0696 44.9946L22.0161 50L4.01071 45.0018Z" fill="#1572B6"/>
<path d="M22.0428 46.1749L36.6321 42.1303L40.0642 3.6803H22.0428V46.1749Z" fill="#33A9DC"/>
<path d="M22.0428 19.9839H29.3464L29.85 14.3321H22.0428V8.8125H35.8821L35.75 10.2929L34.3946 25.5036H22.0428V19.9839V19.9839Z" fill="white"/>
<path d="M22.0768 34.3179L22.0518 34.325L15.9053 32.6643L15.5125 28.2625H9.97141L10.7446 36.9286L22.05 40.0679L22.0768 40.0607V34.3179V34.3179Z" fill="#EBEBEB"/>
<path d="M28.8767 25.2697L28.2124 32.6607L22.0571 34.3214V40.0643L33.3714 36.9286L33.4553 35.9964L34.4142 25.2697H28.8767V25.2697Z" fill="white"/>
<path d="M22.0624 8.8125V14.3321H8.73027L8.61956 13.0911L8.36777 10.2929L8.23563 8.8125H22.0624V8.8125Z" fill="#EBEBEB"/>
<path d="M22.0428 19.9839V25.5035H15.9732L15.8625 24.2625L15.6125 21.4642L15.4803 19.9839H22.0428V19.9839Z" fill="#EBEBEB"/>
</svg>
