<svg width="231" height="230" viewBox="0 0 231 230" fill="none" xmlns="http://www.w3.org/2000/svg">
<path fill-rule="evenodd" clip-rule="evenodd" d="M115.364 17.526C127.807 3.71406 142.241 0 161.998 0C199.622 0 230.087 31.6951 230.087 70.3742C230.234 92.3112 224.274 118.338 209.782 142.133C194.854 166.635 143.453 216.088 115.21 230C89.324 217.019 37.2296 167.929 20.3056 141.783C5.18481 118.431 -0.148355 91.9622 0.00312661 70.0266C0.00312661 31.3525 30.4601 0 68.0807 0C87.8414 0 102.92 3.71406 115.364 17.526Z" fill="#F40002"/>
<path fill-rule="evenodd" clip-rule="evenodd" d="M44.6688 160.185V154.982H49.9761V151.531H44.6688V148.841H51.3303V145.385H39.8167V160.185H44.6688Z" fill="white"/>
<path fill-rule="evenodd" clip-rule="evenodd" d="M65.2417 160.185V156.73H57.7295V154.408H63.8364V150.956H57.7295V148.841H64.9523V145.385H52.878V160.185H65.2417Z" fill="white"/>
<path fill-rule="evenodd" clip-rule="evenodd" d="M81.995 154.718L87.5066 145.385H82.1548L79.6022 150.401L77.0551 145.385H71.6301L77.1384 154.796V160.185H81.995V154.718Z" fill="white"/>
<path fill-rule="evenodd" clip-rule="evenodd" d="M102.496 155.148H99.4322L100.931 149.845L102.496 155.148ZM97.9494 160.185L98.5033 158.234H103.341L103.916 160.185H108.749L103.44 145.385H98.5033L93.1964 160.185H97.9494Z" fill="white"/>
<path fill-rule="evenodd" clip-rule="evenodd" d="M121.375 160.185V156.73H114.708V145.385H109.856V160.185H121.375Z" fill="white"/>
<path fill-rule="evenodd" clip-rule="evenodd" d="M135.232 160.185V156.73H127.733V154.408H133.839V150.956H127.733V148.841H134.951V145.385H122.882V160.185H135.232Z" fill="white"/>
<path fill-rule="evenodd" clip-rule="evenodd" d="M151.226 152.045H144.585V155.25H146.717C146.475 156.28 145.223 156.958 144.232 156.958C141.787 156.958 141.131 155.046 141.131 152.95C141.131 150.336 142.034 148.611 143.945 148.611C145.198 148.611 146.085 149.269 146.432 150.482H151.036C150.441 146.843 147.586 144.99 144.03 144.99C139.236 144.99 136.271 148.239 136.271 152.973C136.271 158.129 139.664 160.575 143.45 160.575C145.779 160.575 147.115 159.713 147.91 158.766L148.101 160.229H151.226V152.045Z" fill="white"/>
<path fill-rule="evenodd" clip-rule="evenodd" d="M158.039 148.84H160.299C161.433 148.84 162.259 149.332 162.259 150.378C162.259 151.408 161.453 151.778 159.953 151.778H158.039V148.84ZM159.521 155.026C161.788 155.026 162.113 155.661 162.113 157.599C162.113 158.907 162.234 159.857 162.362 160.184H167.278V159.729C166.699 159.729 166.755 159.072 166.755 157.145C166.755 154.162 165.813 153.786 164.249 153.219C165.977 152.747 166.74 151.302 166.74 149.596C166.74 146.72 165.112 145.385 160.182 145.385H153.186V160.184H158.039V155.026H159.521V155.026Z" fill="white"/>
<path d="M173.663 145.385H168.81V160.185H173.663V145.385Z" fill="white"/>
<path fill-rule="evenodd" clip-rule="evenodd" d="M184.024 155.148H180.959L182.46 149.845L184.024 155.148ZM179.477 160.185L180.034 158.234H184.87L185.446 160.185H190.272L184.969 145.385H180.034L174.727 160.185H179.477Z" fill="white"/>
<path d="M195.794 97.9981C196.291 99.6149 196.651 100.356 196.878 102.381C197.094 104.374 197.012 105.274 197.012 107.283C197.012 109.923 195.95 112.972 193.307 112.972C191.847 112.972 191.091 111 191.091 109.54C190.471 109.949 190.036 110.268 189.289 110.268C187.96 110.268 187.499 109.259 187.275 107.546C187.324 103.954 188.445 104.088 188.257 102.166C187.595 97.2884 183.555 93.3006 180.507 92.057L180.701 95.5111L178.324 97.1869L180.308 98.771L185.734 134.587L190.974 140.443H171.244L168.394 131.834L165.392 140.443H145.048L149.977 134.587L156.235 98.771L158.114 97.1869L155.835 95.5111L155.638 92.057L148.37 104.784C148.585 105.335 148.708 106.264 148.708 106.89C148.708 109.53 146.568 111.666 143.936 111.666C141.295 111.666 139.022 108.852 140.374 105.873L126.7 90.4623L125.751 95.5111L123.857 96.5913L135.716 112.998H124L134.172 137.339L137.873 140.732H121.228L114.923 126.777L107.669 140.732H89.1724L93.4928 137.339L106.129 112.998H95.3423L106.123 96.5913L103.957 95.6472L103.28 90.4623L91.635 104.784C91.6847 105.068 92.0972 106.591 92.0972 106.89C92.0972 109.53 89.9606 111.666 87.3226 111.666C84.6889 111.666 82.5445 109.79 82.5445 107.152C82.5445 106.786 82.5843 106.215 82.6656 105.873L72.1445 92.9217L73.1204 98.4687L71.2474 98.8159V100.626L73.0826 100.619L77.1482 134.759L82.4047 140.732H63.5952L60.4915 132.19L57.7837 140.732H39.2581L43.9759 134.759L47.9052 100.619L49.816 100.626V98.8159L48.0396 98.4687L48.5811 92.9217C48.5811 92.9217 42.6192 97.27 41.8319 103.724C41.6495 105.653 42.7691 105.512 42.8248 109.106C42.6019 110.819 42.1376 111.828 40.8023 111.828C40.0597 111.828 39.625 111.505 39.0062 111.096C39.0062 112.56 38.2506 114.531 36.7833 114.531C34.1434 114.531 33.0773 111.484 33.0773 108.841C33.0773 106.834 32.9941 105.935 33.2188 103.941C33.4438 101.92 33.7389 100.276 34.2304 98.6605C36.4458 92.1046 38.6643 89.2539 43.0057 83.2331L42.1521 80.7018L52.1927 73.1441L52.8691 70.7232H55.026L55.0444 68.1277C50.3038 66.5273 44.9676 62.1739 42.4293 57.8088C41.9145 58.0303 41.359 58.1523 40.7805 58.1523C38.2265 58.1523 36.1548 55.8075 36.1548 52.9158C36.1548 50.5289 37.5648 48.5146 39.489 47.8799C39.4687 47.489 39.46 47.0939 39.46 46.6917C39.46 34.8393 48.6642 25.232 60.0103 25.232C71.3615 25.232 80.566 34.8391 80.566 46.6917C80.566 47.3552 80.5377 48.0205 80.4753 48.67C81.6342 49.6228 82.3939 51.1692 82.3939 52.9158C82.3939 55.8078 80.3185 58.1523 77.7666 58.1523L77.3996 58.1364C75.3056 61.8696 69.9091 66.775 64.9869 68.2327V70.7232H66.9785L67.5179 73.3552L76.0952 80.7018L75.1295 83.2331L87.1667 97.4079L98.6733 81.9749L97.8015 78.4879L110.117 71.6397L110.134 66.7789C104.006 65.2968 98.8725 61.2362 96.0417 55.7159H89.6641C89.3241 54.04 89.1074 52.3051 89.1074 50.5289C89.1074 36.4771 100.561 25.561 114.445 24.8696C114.838 24.8413 115.241 24.8696 115.644 24.8696C129.545 25.2716 139.425 36.367 139.459 50.5289C139.463 51.7937 139.195 54.5066 139.022 55.724H133.066C130.763 60.5942 126.474 65.3212 119.991 66.7835L119.995 71.6397L131.401 78.7968L130.493 81.9752L143.267 97.4081L153.573 81.5023L152.825 78.8074L161.226 72.5025L160.278 69.728H164.404L164.381 67.6638C159.083 66.5904 154.51 63.494 151.51 59.0566C151.002 59.2654 150.46 59.3844 149.895 59.3844C147.343 59.3844 145.273 57.0422 145.273 54.1456C145.273 52.0567 146.353 50.2488 147.918 49.4087C147.809 48.5189 147.753 47.6087 147.753 46.6915C147.753 34.8391 156.956 25.2318 168.31 25.2318C179.656 25.2318 188.867 34.8389 188.867 46.6915C188.867 47.5882 188.808 48.4676 188.709 49.3321C190.354 50.1334 191.505 51.989 191.505 54.1456C191.505 57.0422 189.439 59.3844 186.882 59.3844C186.27 59.3844 185.678 59.2516 185.146 58.999C182.316 63.217 177.399 66.4202 172.458 67.6638L172.477 69.728H177.061L176.039 72.5025L183.973 78.8074L183.161 81.5023C188.776 86.3007 193.985 90.8426 195.794 97.9981Z" fill="white"/>
</svg>
