<svg width="20" height="20" viewBox="0 0 20 20" fill="none" xmlns="http://www.w3.org/2000/svg">
<path fill-rule="evenodd" clip-rule="evenodd" d="M9.99949 0C4.47718 0 0 4.47744 0 10.0005C0 14.4187 2.86462 18.1669 6.83872 19.4885C7.33923 19.581 7.52128 19.2731 7.52128 19.0072C7.52128 18.7703 7.51257 18.1418 7.50821 17.3064C4.72641 17.9113 4.13949 15.9656 4.13949 15.9656C3.68462 14.8105 3.02897 14.5033 3.02897 14.5033C2.12103 13.8833 3.09795 13.8954 3.09795 13.8954C4.10154 13.9664 4.62974 14.9256 4.62974 14.9256C5.52154 16.4538 6.97051 16.0115 7.54 15.7572C7.63051 15.1097 7.88949 14.67 8.17487 14.4195C5.95462 14.1672 3.62026 13.3092 3.62026 9.47744C3.62026 8.38538 4.00974 7.49256 4.64923 6.79333C4.54692 6.54154 4.20308 5.52487 4.74744 4.14744C4.74744 4.14744 5.58692 3.87872 7.49769 5.17333C8.29487 4.95051 9.15051 4.83923 10.001 4.8359C10.8503 4.83949 11.7062 4.95051 12.5044 5.17333C14.4138 3.87872 15.2521 4.14744 15.2521 4.14744C15.7977 5.52487 15.4541 6.54154 15.3515 6.79333C15.9926 7.49256 16.3792 8.38538 16.3792 9.47744C16.3792 13.3182 14.0415 14.1644 11.8138 14.411C12.1723 14.72 12.4923 15.3315 12.4923 16.2646C12.4923 17.6008 12.4803 18.679 12.4803 19.0069C12.4803 19.2749 12.66 19.5864 13.1677 19.4872C17.1374 18.1628 20 14.4174 20 10.0005C20 4.47744 15.5228 0 9.99949 0Z" fill="white"/>
</svg>
