<svg width="39" height="44" viewBox="0 0 39 44" fill="none" xmlns="http://www.w3.org/2000/svg">
<path d="M3.51094 39.3766L0 0H38.5781L35.0625 39.3703L19.2656 43.75L3.51094 39.3766Z" fill="#E44F26"/>
<path d="M19.2891 40.4031L32.0547 36.864L35.0578 3.22028H19.2891V40.4031Z" fill="#F1662A"/>
<path d="M19.2891 17.8235H12.8984L12.4578 12.8781H19.2891V8.04846H7.17969L7.29531 9.34534L8.48125 22.6531H19.2891V17.8235Z" fill="#EBEBEB"/>
<path d="M19.2891 30.3656L19.2672 30.3718L13.8891 28.9203L13.5453 25.0687H8.6969L9.37346 32.65L19.2672 35.3968L19.2891 35.3906V30.3656Z" fill="#EBEBEB"/>
<path d="M19.2719 17.8234V22.6531H25.2187L24.6593 28.9172L19.2719 30.3703V35.3953L29.1734 32.65L29.2453 31.8344L30.3797 19.1203L30.4984 17.8234H19.2719Z" fill="white"/>
<path d="M19.2719 8.04846V12.8781H30.9375L31.0344 11.7938L31.2547 9.34534L31.3703 8.04846H19.2719Z" fill="white"/>
</svg>
