<svg width="45" height="50" viewBox="0 0 45 50" fill="none" xmlns="http://www.w3.org/2000/svg">
<path d="M4.0125 45.0018L0 0H44.0893L40.0714 44.9946L22.0179 50L4.0125 45.0018Z" fill="#E44F26"/>
<path d="M22.0446 46.1749L36.6339 42.1303L40.0661 3.6803H22.0446V46.1749Z" fill="#F1662A"/>
<path d="M22.0446 20.3697H14.7411L14.2375 14.7179H22.0446V9.19824H8.20535L8.3375 10.6804L9.69285 25.8893H22.0446V20.3697V20.3697Z" fill="#EBEBEB"/>
<path d="M22.0447 34.7035L22.0197 34.7107L15.8732 33.0517L15.4804 28.65H9.93932L10.7125 37.3142L22.0197 40.4535L22.0447 40.4464V34.7035Z" fill="#EBEBEB"/>
<path d="M22.025 20.3696V25.8893H28.8214L28.1821 33.0482L22.025 34.7089V40.4518L33.341 37.3143L33.4232 36.3821L34.7196 21.8518L34.8553 20.3696H22.025V20.3696Z" fill="white"/>
<path d="M22.025 9.19824V14.7179H35.3571L35.4678 13.4786L35.7196 10.6804L35.8518 9.19824H22.025V9.19824Z" fill="white"/>
</svg>
