<svg width="27" height="17" viewBox="0 0 27 17" fill="none" xmlns="http://www.w3.org/2000/svg">
<path d="M13.5 16C20.4037 16 26 8.5 26 8.5C26 8.5 20.4037 1 13.5 1C6.59625 1 1 8.5 1 8.5C1 8.5 6.59625 16 13.5 16Z" stroke="black" stroke-width="2" stroke-linejoin="round"/>
<path d="M13.5 11.625C14.3288 11.625 15.1237 11.2958 15.7097 10.7097C16.2958 10.1237 16.625 9.3288 16.625 8.5C16.625 7.6712 16.2958 6.87634 15.7097 6.29029C15.1237 5.70424 14.3288 5.375 13.5 5.375C12.6712 5.375 11.8763 5.70424 11.2903 6.29029C10.7042 6.87634 10.375 7.6712 10.375 8.5C10.375 9.3288 10.7042 10.1237 11.2903 10.7097C11.8763 11.2958 12.6712 11.625 13.5 11.625Z" stroke="black" stroke-width="2" stroke-linejoin="round"/>
</svg>
